<svg width="102" height="24" viewBox="0 0 102 24" fill="none" xmlns="http://www.w3.org/2000/svg">
<g clip-path="url(#clip0_67_38)">
<g clip-path="url(#clip1_67_38)">
<path d="M14.1853 11.0801L10.2893 23.3622H7.49225L3.66288 11.1134V23.3622H0V0.125977H3.66288L8.89081 15.495L14.1853 0.125977H17.8482V23.3622H14.1853V11.0801Z" fill="white"/>
<path d="M34.5167 17.0977C34.5167 19.2497 33.8286 20.8372 32.4522 21.86C31.098 22.8614 29.4665 23.3622 27.5573 23.3622C26.3585 23.3622 25.2264 23.1598 24.1608 22.7549C23.0953 22.3288 22.2184 21.6469 21.5302 20.7093C20.8642 19.7718 20.5312 18.5679 20.5312 17.0977V6.80598C20.5312 4.61128 21.1528 2.94926 22.396 1.81995C23.6613 0.690634 25.3929 0.125977 27.5906 0.125977C29.7883 0.125977 31.4865 0.722596 32.6853 1.91583C33.9063 3.10908 34.5167 4.74977 34.5167 6.83795V17.0977ZM30.8538 7.98857C30.8538 7.09364 30.7762 6.35852 30.6208 5.7832C30.4654 5.20789 30.1435 4.76043 29.6551 4.44081C29.1667 4.09988 28.4563 3.92943 27.524 3.92943C26.5916 3.92943 25.8813 4.08923 25.3929 4.40885C24.9045 4.72847 24.5826 5.17594 24.4272 5.75125C24.2718 6.30525 24.1941 7.04037 24.1941 7.95661V16.4904C24.1941 17.5132 24.4605 18.3229 24.9932 18.9195C25.5482 19.4948 26.3919 19.7825 27.524 19.7825C28.5674 19.7825 29.3776 19.4735 29.9549 18.8556C30.5542 18.2376 30.8538 17.4279 30.8538 16.4264V7.98857Z" fill="white"/>
<path d="M37.1953 0.125977H43.9883C45.8308 0.125977 47.3626 0.63496 48.5835 1.65293C49.8045 2.67089 50.415 4.12039 50.415 6.00142C50.415 6.8866 50.2706 7.72754 49.982 8.5242C49.6934 9.3209 49.1052 10.018 48.2172 10.6154L48.184 10.6818V10.7151C49.1607 11.1576 49.971 11.8658 50.6147 12.8395C51.2807 13.8132 51.6137 15.0525 51.6137 16.5573C51.6137 17.708 51.3806 18.8034 50.9144 19.8436C50.4482 20.8615 49.6824 21.7025 48.6168 22.3663C47.5513 23.0303 46.1749 23.3622 44.4877 23.3622H37.1953V0.125977ZM42.4565 9.65282C43.7219 9.65282 44.6542 9.42046 45.2537 8.95573C45.853 8.49101 46.1526 7.69434 46.1526 6.56572C46.1526 5.52563 45.8752 4.80641 45.3202 4.40808C44.7653 3.98761 43.9217 3.77738 42.7895 3.77738H40.8582V9.65282H42.4565ZM42.8894 20.0096C43.9106 20.0096 44.7319 19.9321 45.3535 19.7772C45.9973 19.6001 46.4968 19.2571 46.852 18.7481C47.2294 18.2391 47.418 17.4867 47.418 16.4909C47.418 15.2295 47.0295 14.3665 46.2526 13.9017C45.4756 13.4148 44.4545 13.1714 43.1891 13.1714H40.8582V20.0096H42.8894Z" fill="white"/>
<g clip-path="url(#clip2_67_38)">
<path d="M37.1953 0.125977H43.9883C45.8308 0.125977 47.3626 0.63496 48.5835 1.65293C49.8045 2.67089 50.415 4.12039 50.415 6.00142C50.415 6.8866 50.2706 7.72754 49.982 8.5242C49.6934 9.3209 49.1052 10.018 48.2172 10.6154L48.184 10.6818V10.7151C49.1607 11.1576 49.971 11.8658 50.6147 12.8395C51.2807 13.8132 51.6137 15.0525 51.6137 16.5573C51.6137 17.708 51.3806 18.8034 50.9144 19.8436C50.4482 20.8615 49.6824 21.7025 48.6168 22.3663C47.5513 23.0303 46.1749 23.3622 44.4877 23.3622H37.1953V0.125977ZM42.4565 9.65282C43.7219 9.65282 44.6542 9.42046 45.2537 8.95573C45.853 8.49101 46.1526 7.69434 46.1526 6.56572C46.1526 5.52563 45.8752 4.80641 45.3202 4.40808C44.7653 3.98761 43.9217 3.77738 42.7895 3.77738H40.8582V9.65282H42.4565ZM42.8894 20.0096C43.9106 20.0096 44.7319 19.9321 45.3535 19.7772C45.9973 19.6001 46.4968 19.2571 46.852 18.7481C47.2294 18.2391 47.418 17.4867 47.418 16.4909C47.418 15.2295 47.0295 14.3665 46.2526 13.9017C45.4756 13.4148 44.4545 13.1714 43.1891 13.1714H40.8582V20.0096H42.8894Z" fill="url(#paint0_linear_67_38)"/>
</g>
<g clip-path="url(#clip3_67_38)">
<path d="M37.1953 0.126465H43.9883C45.8308 0.126465 47.3626 0.635448 48.5835 1.65341C49.8045 2.67138 50.415 4.12087 50.415 6.00191C50.415 6.88709 50.2706 7.72803 49.982 8.52469C49.6934 9.32139 49.1052 10.0185 48.2172 10.6159L48.184 10.6823V10.7156C49.1607 11.1581 49.971 11.8663 50.6147 12.84C51.2807 13.8137 51.6137 15.053 51.6137 16.5578C51.6137 17.7085 51.3806 18.8039 50.9144 19.8441C50.4482 20.862 49.6824 21.703 48.6168 22.3668C47.5513 23.0307 46.1749 23.3627 44.4877 23.3627H37.1953V0.126465ZM42.4565 9.65331C43.7219 9.65331 44.6542 9.42094 45.2537 8.95622C45.853 8.4915 46.1526 7.69483 46.1526 6.56621C46.1526 5.52612 45.8752 4.8069 45.3202 4.40857C44.7653 3.9881 43.9217 3.77786 42.7895 3.77786H40.8582V9.65331H42.4565ZM42.8894 20.01C43.9106 20.01 44.7319 19.9326 45.3535 19.7777C45.9973 19.6006 46.4968 19.2576 46.852 18.7486C47.2294 18.2396 47.418 17.4872 47.418 16.4914C47.418 15.23 47.0295 14.3669 46.2526 13.9022C45.4756 13.4153 44.4545 13.1719 43.1891 13.1719H40.8582V20.01H42.8894Z" fill="url(#paint1_linear_67_38)"/>
</g>
</g>
<g clip-path="url(#clip4_67_38)">
<path d="M65.5454 22.2819C63.6278 22.9919 61.8397 23.3469 60.1807 23.3469C58.3063 23.3469 56.7875 22.852 55.624 21.8624C54.4607 20.8727 53.8789 19.2913 53.8789 17.1184V6.75893C53.8789 5.1238 54.1052 3.8867 54.5576 3.04762C55.0316 2.20854 55.7425 1.49855 56.6905 0.917646C57.6385 0.379776 58.8019 0.11084 60.1807 0.11084C61.8612 0.11084 63.3801 0.465835 64.7374 1.17583L63.7356 4.40306C62.7445 4.0373 61.6566 3.85443 60.4716 3.85443C59.5667 3.85443 58.8342 4.10185 58.2741 4.59668C57.7139 5.09153 57.4338 5.71546 57.4338 6.46848V17.0538C57.4338 18.8611 58.4464 19.7647 60.4716 19.7647C61.1179 19.7647 61.7643 19.7001 62.4106 19.571C63.0569 19.4204 63.9187 19.2052 64.9959 18.9256L65.5454 22.2819Z" fill="white"/>
<path opacity="0.7" d="M71.0984 10.5272C71.0984 10.5272 73.3517 9.92929 75.2737 10.5265C77.1956 11.1237 79.8057 9.55958 79.8057 9.55958L81.0235 20.5436L72.3162 21.5112L71.0984 10.5272Z" fill="url(#paint2_linear_67_38)"/>
<path d="M70.3041 11.5538C70.3041 11.5538 72.6117 12.4964 74.463 11.1824C76.3142 9.86841 78.8912 9.81705 78.8912 9.81705L81.0819 20.6489L72.4948 22.3856L70.3041 11.5538Z" fill="url(#paint3_linear_67_38)"/>
<g clip-path="url(#clip5_67_38)">
<path d="M77.6916 0.0992447L85.6862 0.133451C88.1416 0.143798 89.9486 0.947373 91.109 2.54387C92.2935 4.11695 92.8789 6.09722 92.8669 8.48433C92.8336 14.7567 90.5145 17.883 85.9095 17.8633L81.456 17.8443L77.5988 17.8278L77.6916 0.0992447ZM84.7719 14.1722C86.1042 14.1779 87.0753 13.8896 87.6861 13.3071C88.3211 12.7245 88.6985 12.0708 88.8194 11.3458C88.9402 10.5974 89.0029 9.66159 89.0094 8.53801C89.0159 7.29763 88.8452 6.34904 88.4975 5.69235C88.1739 5.01221 87.6974 4.56542 87.067 4.35213C86.4608 4.11543 85.6668 3.99498 84.6841 3.99094L81.5286 3.97739L81.4753 14.1582L84.7719 14.1722Z" fill="url(#paint4_linear_67_38)"/>
</g>
<g clip-path="url(#clip6_67_38)">
<path d="M77.6856 0.165579L85.6802 0.201239C88.1356 0.212033 89.9427 1.01227 91.1034 2.60166C92.2883 4.16774 92.874 6.13902 92.8625 8.51514C92.8305 14.7586 90.5121 17.8701 85.9071 17.8496L81.4536 17.8297L77.5964 17.8126L77.6856 0.165579ZM84.7687 14.1752C86.101 14.1811 87.072 13.8943 87.6827 13.3147C88.3176 12.7349 88.6949 12.0843 88.8156 11.3626C88.9363 10.6177 88.9988 9.6862 89.0051 8.5678C89.0113 7.33312 88.8404 6.38887 88.4925 5.73513C88.1688 5.05805 87.6923 4.61322 87.0618 4.40079C86.4556 4.16506 85.6616 4.045 84.6789 4.04077L81.5233 4.02666L81.4722 14.1606L84.7687 14.1752Z" fill="url(#paint5_linear_67_38)"/>
</g>
<path d="M82.137 0.0932407L82.1323 17.0615C82.1279 19.2699 81.4459 20.8761 80.0864 21.8798C78.7488 22.8835 77.1276 23.3839 75.2228 23.381C73.318 23.378 71.6878 22.8726 70.3323 21.8647C68.9769 20.8567 68.3014 19.2485 68.3058 17.04L68.3398 0.148391L71.9525 0.154L71.9214 15.6025C71.9184 17.0893 72.1352 18.1721 72.5716 18.8505C73.0302 19.5073 73.9052 19.8366 75.197 19.8386C76.5107 19.8406 77.3872 19.5141 77.8264 18.8588C78.2876 18.1816 78.5196 17.0996 78.5227 15.6127L78.5246 0.0875884L82.137 0.0932407Z" fill="white"/>
</g>
</g>
<defs>
<linearGradient id="paint0_linear_67_38" x1="36.5607" y1="10.159" x2="44.3708" y2="10.159" gradientUnits="userSpaceOnUse">
<stop/>
<stop offset="0.880208" stop-color="white"/>
</linearGradient>
<linearGradient id="paint1_linear_67_38" x1="36.5607" y1="10.1595" x2="47.5072" y2="10.1595" gradientUnits="userSpaceOnUse">
<stop offset="1" stop-color="white"/>
</linearGradient>
<linearGradient id="paint2_linear_67_38" x1="74.8915" y1="9.75291" x2="77.2291" y2="21.311" gradientUnits="userSpaceOnUse">
<stop stop-color="#3ADDDA"/>
<stop offset="1" stop-color="#198ADF"/>
</linearGradient>
<linearGradient id="paint3_linear_67_38" x1="74.5748" y1="10.5726" x2="76.7884" y2="21.5173" gradientUnits="userSpaceOnUse">
<stop stop-color="#04EEEF"/>
<stop offset="0.5" stop-color="#4A95F2"/>
<stop offset="1" stop-color="#0041E9"/>
</linearGradient>
<linearGradient id="paint4_linear_67_38" x1="87.8571" y1="8.19944" x2="75.2476" y2="8.30076" gradientUnits="userSpaceOnUse">
<stop stop-color="white"/>
<stop offset="1" stop-color="#534E4E"/>
</linearGradient>
<linearGradient id="paint5_linear_67_38" x1="87.8527" y1="8.23055" x2="71.9992" y2="8.22218" gradientUnits="userSpaceOnUse">
<stop stop-color="white"/>
<stop offset="1" stop-color="white"/>
</linearGradient>
<clipPath id="clip0_67_38">
<rect width="102" height="24" fill="white"/>
</clipPath>
<clipPath id="clip1_67_38">
<rect width="52" height="25" fill="white"/>
</clipPath>
<clipPath id="clip2_67_38">
<rect width="10.8235" height="23.2459" fill="white" transform="translate(40.8027 0.0732422)"/>
</clipPath>
<clipPath id="clip3_67_38">
<rect width="10.8235" height="13.8984" fill="white" transform="translate(40.8027 9.4209)"/>
</clipPath>
<clipPath id="clip4_67_38">
<rect width="40.5632" height="23.3936" fill="white" transform="translate(54.0117 0.0532227)"/>
</clipPath>
<clipPath id="clip5_67_38">
<rect width="11.9845" height="20.8052" fill="white" transform="translate(82.0703 -2.39697)"/>
</clipPath>
<clipPath id="clip6_67_38">
<rect width="11.9845" height="10.3546" fill="white" transform="translate(82.0703 8.05371)"/>
</clipPath>
</defs>
</svg>
