<svg width="125" height="36" viewBox="0 0 125 36" fill="none" xmlns="http://www.w3.org/2000/svg">
<g clip-path="url(#clip0_23_493)">
<g clip-path="url(#clip1_23_493)">
<g filter="url(#filter0_d_23_493)">
<path d="M19.0663 17.1716L13.8297 33.6797H10.0702L4.92323 17.2163V33.6797H0V2.44824H4.92323L11.95 23.1056L19.0663 2.44824H23.9895V33.6797H19.0663V17.1716Z" fill="#1A1C34"/>
<path d="M46.3924 25.2597C46.3924 28.1522 45.4675 30.2859 43.6176 31.6606C41.7974 33.0066 39.6044 33.6797 37.0383 33.6797C35.4271 33.6797 33.9054 33.4076 32.4731 32.8635C31.041 32.2907 29.8624 31.3742 28.9374 30.114C28.0422 28.8539 27.5947 27.2358 27.5947 25.2597V11.4267C27.5947 8.47687 28.4301 6.24298 30.1011 4.72509C31.8018 3.20719 34.1292 2.44824 37.0831 2.44824C40.0371 2.44824 42.3196 3.25015 43.9308 4.85396C45.5719 6.45778 46.3924 8.66302 46.3924 11.4697V25.2597ZM41.4692 13.0162C41.4692 11.8134 41.3648 10.8253 41.156 10.052C40.9471 9.27877 40.5144 8.67734 39.858 8.24775C39.2015 7.78952 38.2467 7.56041 36.9936 7.56041C35.7404 7.56041 34.7856 7.7752 34.1292 8.2048C33.4727 8.63439 33.0401 9.23582 32.8312 10.0091C32.6224 10.7537 32.518 11.7418 32.518 12.9733V24.4435C32.518 25.8181 32.876 26.9064 33.592 27.7084C34.338 28.4816 35.4719 28.8682 36.9936 28.8682C38.396 28.8682 39.485 28.453 40.2609 27.6225C41.0664 26.7918 41.4692 25.7035 41.4692 24.3575V13.0162Z" fill="#1A1C34"/>
<path d="M49.998 2.44873H59.1284C61.6049 2.44873 63.6637 3.13285 65.3048 4.50108C66.9458 5.86932 67.7664 7.81756 67.7664 10.3458C67.7664 11.5356 67.5724 12.6659 67.1845 13.7367C66.7966 14.8075 66.0059 15.7444 64.8124 16.5474L64.7677 16.6367V16.6814C66.0806 17.2762 67.1696 18.2281 68.0349 19.5368C68.93 20.8455 69.3776 22.5112 69.3776 24.5338C69.3776 26.0805 69.0643 27.5528 68.4377 28.9509C67.8111 30.3191 66.7817 31.4494 65.3495 32.3417C63.9173 33.234 62.0673 33.6802 59.7997 33.6802H49.998V2.44873ZM57.0695 15.2536C58.7703 15.2536 60.0235 14.9413 60.8291 14.3167C61.6347 13.692 62.0375 12.6213 62.0375 11.1043C62.0375 9.70633 61.6645 8.73963 60.9186 8.20424C60.1727 7.6391 59.0388 7.35652 57.5171 7.35652H54.9213V15.2536H57.0695ZM57.6514 29.174C59.024 29.174 60.1279 29.0698 60.9634 28.8616C61.8287 28.6237 62.5001 28.1627 62.9774 27.4784C63.4847 26.7944 63.7383 25.7831 63.7383 24.4446C63.7383 22.7492 63.2161 21.5892 62.1719 20.9645C61.1275 20.3101 59.755 19.9829 58.0542 19.9829H54.9213V29.174H57.6514Z" fill="#1A1C34"/>
<g clip-path="url(#clip2_23_493)">
<path d="M49.999 2.44922H59.1294C61.6058 2.44922 63.6647 3.13334 65.3057 4.50157C66.9468 5.86981 67.7674 7.81805 67.7674 10.3463C67.7674 11.5361 67.5734 12.6664 67.1855 13.7372C66.7976 14.808 66.0069 15.7449 64.8134 16.5479L64.7687 16.6372V16.6819C66.0816 17.2767 67.1706 18.2285 68.0359 19.5373C68.931 20.846 69.3786 22.5117 69.3786 24.5343C69.3786 26.081 69.0652 27.5533 68.4386 28.9514C67.8121 30.3196 66.7827 31.4499 65.3505 32.3422C63.9183 33.2345 62.0683 33.6807 59.8006 33.6807H49.999V2.44922ZM57.0705 15.2541C58.7713 15.2541 60.0244 14.9418 60.8301 14.3172C61.6357 13.6925 62.0385 12.6217 62.0385 11.1048C62.0385 9.70682 61.6655 8.74012 60.9195 8.20473C60.1737 7.63958 59.0398 7.35701 57.5181 7.35701H54.9223V15.2541H57.0705ZM57.6524 29.1744C59.0249 29.1744 60.1289 29.0703 60.9644 28.8621C61.8296 28.6242 62.501 28.1631 62.9784 27.4789C63.4857 26.7948 63.7392 25.7836 63.7392 24.445C63.7392 22.7497 63.2171 21.5896 62.1728 20.965C61.1285 20.3106 59.7559 19.9834 58.0552 19.9834H54.9223V29.1744H57.6524Z" fill="url(#paint0_linear_23_493)"/>
</g>
<g clip-path="url(#clip3_23_493)">
<path d="M49.999 2.44873H59.1294C61.6058 2.44873 63.6647 3.13285 65.3057 4.50108C66.9468 5.86932 67.7674 7.81756 67.7674 10.3458C67.7674 11.5356 67.5734 12.6659 67.1855 13.7367C66.7976 14.8075 66.0069 15.7444 64.8134 16.5474L64.7687 16.6367V16.6814C66.0816 17.2762 67.1706 18.2281 68.0359 19.5368C68.931 20.8455 69.3786 22.5112 69.3786 24.5338C69.3786 26.0805 69.0652 27.5528 68.4386 28.9509C67.8121 30.3191 66.7827 31.4494 65.3505 32.3417C63.9183 33.234 62.0683 33.6802 59.8006 33.6802H49.999V2.44873ZM57.0705 15.2536C58.7713 15.2536 60.0244 14.9413 60.8301 14.3167C61.6357 13.692 62.0385 12.6213 62.0385 11.1043C62.0385 9.70633 61.6655 8.73963 60.9195 8.20424C60.1737 7.6391 59.0398 7.35652 57.5181 7.35652H54.9223V15.2536H57.0705ZM57.6524 29.174C59.0249 29.174 60.1289 29.0698 60.9644 28.8616C61.8296 28.6237 62.501 28.1627 62.9784 27.4784C63.4857 26.7944 63.7392 25.7831 63.7392 24.4446C63.7392 22.7492 63.2171 21.5892 62.1728 20.9645C61.1285 20.3101 59.7559 19.9829 58.0552 19.9829H54.9223V29.174H57.6524Z" fill="url(#paint1_linear_23_493)"/>
</g>
</g>
</g>
<g clip-path="url(#clip4_23_493)">
<path d="M88.0987 32.227C85.5214 33.1814 83.118 33.6585 80.8882 33.6585C78.3688 33.6585 76.3273 32.9934 74.7636 31.6632C73.1999 30.333 72.418 28.2074 72.418 25.2868V11.3629C72.418 9.1651 72.7221 7.50232 73.3302 6.37453C73.9673 5.24673 74.9228 4.29245 76.197 3.51166C77.4712 2.78872 79.0349 2.42725 80.8882 2.42725C83.1469 2.42725 85.1884 2.90439 87.0127 3.85868L85.6662 8.19635C84.3341 7.70475 82.8718 7.45895 81.2791 7.45895C80.0628 7.45895 79.0784 7.7915 78.3254 8.4566C77.5725 9.12172 77.196 9.96034 77.196 10.9725V25.2C77.196 27.6292 78.557 28.8437 81.2791 28.8437C82.1478 28.8437 83.0166 28.7569 83.8853 28.5834C84.754 28.381 85.9124 28.0918 87.3602 27.7159L88.0987 32.227Z" fill="#1A1C34"/>
<path opacity="0.7" d="M95.5634 16.4282C95.5634 16.4282 98.5921 15.6246 101.175 16.4274C103.759 17.2301 107.267 15.1277 107.267 15.1277L108.904 29.8912L97.2003 31.1917L95.5634 16.4282Z" fill="url(#paint2_linear_23_493)"/>
<path d="M94.4936 17.8075C94.4936 17.8075 97.5953 19.0744 100.084 17.3083C102.572 15.5422 106.035 15.4731 106.035 15.4731L108.98 30.0321L97.4381 32.3664L94.4936 17.8075Z" fill="url(#paint3_linear_23_493)"/>
<g clip-path="url(#clip5_23_493)">
<path d="M104.423 2.41138L115.168 2.45735C118.468 2.47126 120.897 3.55134 122.457 5.69717C124.049 7.81151 124.836 10.4732 124.819 13.6817C124.775 22.1122 121.658 26.3143 115.468 26.2878L109.482 26.2622L104.298 26.2401L104.423 2.41138ZM113.939 21.3266C115.73 21.3343 117.035 20.9468 117.856 20.1639C118.71 19.3808 119.217 18.5022 119.379 17.5277C119.542 16.5218 119.626 15.264 119.635 13.7538C119.643 12.0866 119.414 10.8116 118.947 9.92899C118.512 9.01483 117.871 8.4143 117.024 8.12763C116.209 7.80948 115.142 7.64758 113.821 7.64215L109.58 7.62394L109.508 21.3078L113.939 21.3266Z" fill="url(#paint4_linear_23_493)"/>
</g>
<g clip-path="url(#clip6_23_493)">
<path d="M104.418 2.50116L115.164 2.54909C118.464 2.56359 120.893 3.63919 122.453 5.77546C124.046 7.8804 124.833 10.53 124.818 13.7237C124.775 22.1155 121.658 26.2976 115.469 26.2699L109.483 26.2433L104.299 26.2202L104.418 2.50116ZM113.939 21.3313C115.73 21.3393 117.035 20.9538 117.855 20.1747C118.709 19.3954 119.216 18.5209 119.378 17.5509C119.54 16.5497 119.624 15.2977 119.633 13.7945C119.641 12.1349 119.412 10.8658 118.944 9.9871C118.509 9.07706 117.868 8.47916 117.021 8.19364C116.206 7.87679 115.139 7.71543 113.818 7.70975L109.577 7.69078L109.508 21.3116L113.939 21.3313Z" fill="#1A1C34"/>
</g>
<path d="M110.4 2.40352L110.394 25.2103C110.388 28.1786 109.472 30.3374 107.644 31.6865C105.846 33.0356 103.667 33.7082 101.107 33.7043C98.5469 33.7003 96.3558 33.0209 94.534 31.6662C92.7121 30.3113 91.8042 28.1498 91.8102 25.1814L91.8559 2.47764L96.7116 2.48518L96.6698 23.2492C96.6658 25.2477 96.9572 26.703 97.5438 27.6149C98.1601 28.4977 99.3363 28.9403 101.073 28.943C102.838 28.9457 104.016 28.5068 104.607 27.626C105.227 26.7159 105.538 25.2616 105.542 23.263L105.545 2.39592L110.4 2.40352Z" fill="#1A1C34"/>
</g>
</g>
<defs>
<filter id="filter0_d_23_493" x="-1.32252" y="1.71667" width="137.659" height="34.0103" filterUnits="userSpaceOnUse" color-interpolation-filters="sRGB">
<feFlood flood-opacity="0" result="BackgroundImageFix"/>
<feColorMatrix in="SourceAlpha" type="matrix" values="0 0 0 0 0 0 0 0 0 0 0 0 0 0 0 0 0 0 127 0" result="hardAlpha"/>
<feOffset dy="0.66126"/>
<feGaussianBlur stdDeviation="0.66126"/>
<feComposite in2="hardAlpha" operator="out"/>
<feColorMatrix type="matrix" values="0 0 0 0 0 0 0 0 0 0 0 0 0 0 0 0 0 0 0.15 0"/>
<feBlend mode="normal" in2="BackgroundImageFix" result="effect1_dropShadow_23_493"/>
<feBlend mode="normal" in="SourceGraphic" in2="effect1_dropShadow_23_493" result="shape"/>
</filter>
<linearGradient id="paint0_linear_23_493" x1="49.146" y1="15.9344" x2="59.6436" y2="15.9344" gradientUnits="userSpaceOnUse">
<stop/>
<stop offset="1" stop-color="#1A1C34"/>
</linearGradient>
<linearGradient id="paint1_linear_23_493" x1="49.146" y1="15.9339" x2="63.8591" y2="15.9339" gradientUnits="userSpaceOnUse">
<stop offset="1" stop-color="#1A1C34"/>
</linearGradient>
<linearGradient id="paint2_linear_23_493" x1="100.662" y1="15.3876" x2="103.804" y2="30.9227" gradientUnits="userSpaceOnUse">
<stop stop-color="#3ADDDA"/>
<stop offset="1" stop-color="#198ADF"/>
</linearGradient>
<linearGradient id="paint3_linear_23_493" x1="100.234" y1="16.4886" x2="103.209" y2="31.1992" gradientUnits="userSpaceOnUse">
<stop stop-color="#04EEEF"/>
<stop offset="0.5" stop-color="#4A95F2"/>
<stop offset="1" stop-color="#0041E9"/>
</linearGradient>
<linearGradient id="paint4_linear_23_493" x1="101.284" y1="14.1177" x2="114.112" y2="12.7331" gradientUnits="userSpaceOnUse">
<stop offset="0.25"/>
<stop offset="1" stop-color="#1A1C34"/>
</linearGradient>
<clipPath id="clip0_23_493">
<rect width="125" height="36" fill="white"/>
</clipPath>
<clipPath id="clip1_23_493">
<rect width="69.3765" height="31.2988" fill="white" transform="translate(0 2.42285)"/>
</clipPath>
<clipPath id="clip2_23_493">
<rect width="14.5477" height="31.2445" fill="white" transform="translate(54.8486 2.37793)"/>
</clipPath>
<clipPath id="clip3_23_493">
<rect width="14.5477" height="18.6806" fill="white" transform="translate(54.8486 14.9419)"/>
</clipPath>
<clipPath id="clip4_23_493">
<rect width="54.5205" height="31.443" fill="white" transform="translate(72.5977 2.3501)"/>
</clipPath>
<clipPath id="clip5_23_493">
<rect width="16.1082" height="27.9639" fill="white" transform="translate(110.309 -0.943359)"/>
</clipPath>
<clipPath id="clip6_23_493">
<rect width="16.1082" height="13.9175" fill="white" transform="translate(110.309 13.1035)"/>
</clipPath>
</defs>
</svg>
